Coordinates
version=1
nRows=54
nColumns=12
inDegrees=yes

Units are S.I. units (second, meters, Newtons, ...)
Angles are in degrees

endheader
time	SC_y	SC_z	SC_x	AC_y	AC_z	AC_x	GH_y	GH_z	GH_yy	EL_x	PS_y
       0.0              -11.34          14.84          6.742          35.92         -6.908          19.71           79.2           79.3          5.227          106.0          77.69
   0.02395              -11.35          14.84          6.747          35.92         -6.907          19.71           79.2          79.29          5.205          106.0          77.68
   0.04791              -11.35          14.84          6.752          35.92         -6.905          19.71           79.2          79.28          5.181          106.0          77.68
   0.07186              -11.36          14.84          6.757          35.92         -6.904          19.71           79.2          79.26          5.156          106.0          77.67
   0.09581              -11.37          14.84          6.763          35.92         -6.902           19.7          79.21          79.25           5.13          106.0          77.66
    0.1198              -11.37          14.84          6.769          35.92           -6.9           19.7          79.21          79.24          5.101          106.0          77.65
    0.1437              -11.38          14.84          6.775          35.92         -6.898           19.7          79.21          79.22          5.071          106.0          77.64
    0.1677              -11.39          14.83          6.782          35.93         -6.896           19.7          79.21          79.21          5.038          106.0          77.63
    0.1916               -11.4          14.83           6.79          35.93         -6.894          19.69          79.21          79.19          5.004          106.0          77.62
    0.2156              -11.41          14.83          6.798          35.93         -6.892          19.69          79.21          79.17          4.967          106.0          77.61
    0.2395              -11.42          14.83          6.806          35.93         -6.889          19.68          79.22          79.16          4.927          105.9           77.6
    0.2635              -11.43          14.83          6.815          35.93         -6.886          19.68          79.22          79.14          4.884          105.9          77.58
    0.2874              -11.45          14.82          6.825          35.93         -6.883          19.68          79.22          79.11          4.837          105.9          77.57
    0.3114              -11.46          14.82          6.836          35.94          -6.88          19.67          79.22          79.09          4.787          105.9          77.55
    0.3354              -11.48          14.82          6.848          35.94         -6.877          19.66          79.23          79.06          4.733          105.9          77.54
    0.3593              -11.49          14.82           6.86          35.94         -6.873          19.66          79.23          79.04          4.674          105.9          77.52
    0.3833              -11.51          14.81          6.874          35.94         -6.869          19.65          79.23           79.0           4.61          105.9           77.5
    0.4072              -11.53          14.81          6.889          35.95         -6.864          19.65          79.24          78.97          4.541          105.8          77.48
    0.4312              -11.55          14.81          6.905          35.95         -6.859          19.64          79.24          78.94          4.465          105.8          77.45
    0.4551              -11.57           14.8          6.923          35.95         -6.854          19.63          79.24           78.9          4.381          105.8          77.43
    0.4791               -11.6           14.8          6.942          35.96         -6.848          19.62          79.25          78.85           4.29          105.8           77.4
     0.503              -11.63          14.79          6.964          35.96         -6.841          19.61          79.25           78.8          4.189          105.7          77.37
     0.527              -11.66          14.79          6.987          35.97         -6.834           19.6          79.26          78.75          4.078          105.7          77.33
    0.5509              -11.69          14.78          7.014          35.97         -6.826          19.59          79.26          78.69          3.955          105.7           77.3
    0.5749              -11.73          14.78          7.043          35.98         -6.817          19.57          79.27          78.63          3.818          105.6          77.25
    0.5988              -11.77          14.77          7.075          35.98         -6.808          19.56          79.28          78.56          3.666          105.6          77.21
    0.6228              -11.82          14.76          7.112          35.99         -6.797          19.54          79.29          78.47          3.495          105.6          77.15
    0.6467              -11.87          14.75          7.153           36.0         -6.784          19.52           79.3          78.38          3.302          105.5          77.09
    0.6707              -11.93          14.74          7.199          36.01          -6.77           19.5          79.31          78.28          3.085          105.4          77.03
    0.6947               -12.0          14.73          7.252          36.02         -6.754          19.47          79.32          78.16          2.838          105.4          76.95
    0.7186              -12.08          14.72          7.312          36.03         -6.736          19.45          79.34          78.03          2.556          105.3          76.86
    0.7426              -12.17           14.7          7.381          36.04         -6.715          19.41          79.35          77.87          2.233          105.2          76.76
    0.7665              -12.27          14.69          7.461          36.06         -6.691          19.38          79.37           77.7          1.859          105.1          76.65
    0.7905              -12.39          14.67          7.554          36.07         -6.663          19.33          79.39          77.49          1.426          105.0          76.51
    0.8144              -12.53          14.64          7.662           36.1          -6.63          19.28          79.42          77.25         0.9181          104.8          76.35
    0.8384               -12.7          14.62           7.79          36.12         -6.592          19.22          79.45          76.96         0.3198          104.7          76.17
    0.8623              -12.89          14.58          7.942          36.15         -6.546          19.15          79.48          76.63        -0.3913          104.5          75.95
    0.8863              -13.13          14.54          8.123          36.18         -6.491          19.06          79.53          76.22         -1.244          104.3          75.68
    0.9102              -13.41           14.5          8.344          36.23         -6.424          18.96          79.58          75.73         -2.275          104.0          75.36
    0.9342              -13.76          14.44          8.613          36.28         -6.343          18.83          79.64          75.13         -3.534          103.6          74.97
    0.9581              -14.19          14.37          8.944          36.34         -6.243          18.68          79.72          74.39         -5.089          103.2          74.49
    0.9821              -14.73          14.28          9.358          36.42         -6.117          18.48          79.82          73.47         -7.028          102.7          73.89
     1.006               -15.4          14.16           9.88          36.52          -5.96          18.24          79.94          72.31          -9.47          102.0          73.13
      1.03              -16.26          14.02          10.54          36.65         -5.759          17.92           80.1          70.83         -12.57          101.2          72.16
     1.054              -17.36          13.84          11.39          36.82         -5.503          17.52           80.3          68.94         -16.55          100.1          70.93
     1.078              -18.77           13.6          12.48          37.03         -5.174          17.01          80.56          66.51         -21.65          98.67          69.35
     1.102              -20.57           13.3          13.87          37.29         -4.753          16.36          80.89          63.41         -28.16          96.88          67.32
     1.126              -22.83          12.92          15.62          37.63         -4.225          15.53           81.3          59.52         -36.35          94.64          64.78
      1.15              -25.59          12.46          17.75          38.04          -3.58          14.53          81.81          54.77         -46.33           91.9          61.68
     1.174              -28.79          11.92          20.22          38.52         -2.834          13.37          82.39          49.26          -57.9          88.74          58.09
     1.198              -32.25          11.34          22.89          39.04         -2.025          12.11          83.03           43.3         -70.43           85.3           54.2
     1.222              -35.72          10.76          25.57          39.55         -1.216          10.85          83.66          37.34         -82.95          81.87          50.31
     1.246              -38.92          10.23          28.04          40.03        -0.4696          9.683          84.25          31.84         -94.52           78.7          46.72
      1.27              -41.67          9.764          30.17          40.44         0.1746          8.679          84.75          27.09         -104.5          75.97          43.62
